<svg xmlns="http://www.w3.org/2000/svg" width="375" viewBox="0 0 375 375" height="375" version="1.0"><defs><clipPath id="a"><path d="M 0 0 L 375 0 L 375 366.75 L 0 366.75 Z M 0 0"/></clipPath></defs><g clip-path="url(#a)"><path fill="#6C6CE5" d="M 9.128906 366.523438 C 4.683594 366.523438 1.050781 362.890625 1.050781 358.445312 C 1.050781 353.035156 0 322.421875 5.574219 304.894531 C 11.230469 287.042969 24.71875 263.054688 56.953125 249.890625 C 82.640625 239.390625 109.140625 239.714844 134.746094 240.035156 C 172.636719 240.441406 208.421875 240.84375 243.804688 209.421875 C 273.535156 183.011719 273.617188 157.328125 273.695312 127.683594 C 273.777344 96.503906 273.9375 61.207031 310.050781 22.679688 C 323.296875 8.382812 342.28125 0.226562 361.914062 0.226562 L 366.921875 0.226562 C 371.363281 0.226562 375 3.859375 375 8.304688 C 375 12.746094 371.363281 16.378906 366.921875 16.378906 L 361.914062 16.378906 C 346.726562 16.378906 332.105469 22.679688 321.761719 33.746094 C 290.015625 67.671875 289.933594 96.828125 289.773438 127.765625 C 289.691406 158.539062 289.53125 190.28125 254.46875 221.539062 C 214.480469 257.078125 173.847656 256.675781 134.503906 256.191406 C 109.382812 255.867188 85.632812 255.625 63.011719 264.914062 C 42.007812 273.476562 27.871094 288.417969 21.164062 309.257812 C 15.996094 325.25 17.207031 358.367188 17.289062 358.527344 C 17.289062 358.769531 17.289062 358.527344 17.289062 358.527344 C 17.207031 362.96875 13.570312 366.523438 9.128906 366.523438 Z M 9.128906 366.523438"/></g></svg>