<svg xmlns="http://www.w3.org/2000/svg" width="375" viewBox="0 0 375 375" height="375" version="1.0"><path fill="#A6A6A6" d="M 309.863281 184.28125 C 307.5625 184.28125 305.648438 186.195312 305.648438 188.625 C 305.648438 190.925781 307.5625 192.84375 309.992188 192.84375 C 312.417969 192.84375 314.207031 190.925781 314.207031 188.496094 C 314.207031 186.195312 312.289062 184.28125 309.863281 184.28125 Z M 309.863281 245.878906 C 307.5625 245.878906 305.648438 247.792969 305.648438 250.222656 C 305.648438 252.523438 307.5625 254.4375 309.992188 254.4375 C 312.417969 254.4375 314.207031 252.523438 314.207031 250.09375 C 314.207031 247.792969 312.289062 245.878906 309.863281 245.878906 Z M 309.863281 307.347656 C 307.5625 307.347656 305.648438 309.261719 305.648438 311.691406 C 305.648438 313.992188 307.5625 315.910156 309.992188 315.910156 C 312.417969 315.910156 314.207031 313.992188 314.207031 311.5625 C 314.207031 309.261719 312.289062 307.347656 309.863281 307.347656 Z M 309.863281 369.453125 C 307.820312 369.453125 306.285156 371.117188 306.285156 373.160156 C 306.285156 375.207031 307.945312 376.738281 309.992188 376.738281 C 312.035156 376.738281 313.566406 375.078125 313.566406 373.03125 C 313.566406 370.988281 311.90625 369.453125 309.863281 369.453125 Z M 309.863281 122.8125 C 307.5625 122.8125 305.648438 124.726562 305.648438 127.027344 C 305.648438 129.328125 307.5625 131.246094 309.863281 131.246094 C 312.160156 131.246094 314.078125 129.328125 314.078125 127.027344 C 314.207031 124.726562 312.160156 122.8125 309.863281 122.8125 Z M 309.863281 0.511719 C 307.820312 0.511719 306.285156 2.171875 306.285156 4.21875 C 306.285156 6.261719 307.945312 7.796875 309.992188 7.796875 C 312.035156 7.796875 313.566406 6.132812 313.566406 4.089844 C 313.566406 2.042969 311.90625 0.511719 309.863281 0.511719 Z M 187.5 182.492188 C 184.433594 182.492188 181.878906 185.046875 181.878906 188.113281 C 181.878906 191.179688 184.433594 193.738281 187.5 193.738281 C 190.566406 193.738281 193.121094 191.179688 193.121094 188.113281 C 193.121094 185.046875 190.566406 182.492188 187.5 182.492188 Z M 187.5 244.855469 C 184.816406 244.855469 182.519531 247.15625 182.519531 249.710938 C 182.519531 252.394531 184.816406 254.4375 187.5 254.4375 C 190.183594 254.4375 192.480469 252.140625 192.480469 249.710938 C 192.480469 246.898438 190.183594 244.855469 187.5 244.855469 C 187.5 244.597656 187.5 244.597656 187.5 244.855469 Z M 187.5 306.707031 C 185.074219 306.707031 183.15625 308.753906 183.15625 311.050781 C 183.15625 313.480469 185.199219 315.398438 187.5 315.398438 C 189.800781 315.398438 191.84375 313.351562 191.84375 311.050781 C 191.84375 308.625 189.925781 306.707031 187.5 306.707031 Z M 187.5 368.941406 C 185.457031 368.941406 183.796875 370.605469 183.796875 372.648438 C 183.796875 374.695312 185.457031 376.355469 187.5 376.355469 C 189.542969 376.355469 191.203125 374.695312 191.203125 372.648438 C 191.203125 370.605469 189.542969 368.941406 187.5 368.941406 Z M 187.5 121.789062 C 184.816406 121.789062 182.644531 124.089844 182.644531 126.773438 C 182.644531 129.457031 184.945312 131.628906 187.628906 131.628906 C 190.308594 131.628906 192.480469 129.328125 192.480469 126.773438 C 192.480469 123.960938 190.183594 121.789062 187.5 121.789062 C 187.5 121.660156 187.5 121.660156 187.5 121.789062 Z M 187.5 0 C 185.457031 0 183.796875 1.660156 183.796875 3.707031 C 183.796875 5.75 185.457031 7.410156 187.5 7.410156 C 189.542969 7.410156 191.203125 5.75 191.203125 3.707031 C 191.203125 1.660156 189.542969 0 187.5 0 Z M 126.320312 184.28125 C 123.636719 184.28125 121.335938 186.453125 121.335938 189.136719 C 121.335938 191.820312 123.507812 194.121094 126.191406 194.121094 C 128.875 194.121094 131.171875 191.949219 131.171875 189.265625 C 131.171875 186.582031 129 184.28125 126.320312 184.28125 Z M 126.320312 245.75 C 123.636719 245.75 121.335938 247.921875 121.335938 250.605469 C 121.335938 253.289062 123.507812 255.589844 126.191406 255.589844 C 128.875 255.589844 131.171875 253.417969 131.171875 250.734375 C 131.171875 248.050781 129 245.75 126.320312 245.75 Z M 126.320312 307.859375 C 124.019531 307.859375 121.976562 309.773438 121.976562 312.074219 C 121.976562 314.375 123.890625 316.417969 126.191406 316.417969 C 128.488281 316.417969 130.535156 314.503906 130.535156 312.203125 C 130.535156 309.773438 128.617188 307.859375 126.320312 307.859375 Z M 126.320312 369.964844 C 124.273438 369.964844 122.613281 371.5 122.613281 373.542969 C 122.613281 375.589844 124.148438 377.25 126.191406 377.25 C 128.234375 377.25 129.894531 375.714844 129.894531 373.671875 C 129.894531 371.628906 128.363281 369.964844 126.320312 369.964844 Z M 126.320312 122.8125 C 123.636719 122.8125 121.464844 124.984375 121.464844 127.667969 C 121.464844 130.351562 123.636719 132.523438 126.320312 132.523438 C 129 132.523438 131.171875 130.351562 131.171875 127.667969 C 131.171875 125.109375 129 122.8125 126.320312 122.8125 Z M 65.136719 184.917969 C 62.839844 184.917969 60.792969 186.835938 60.792969 189.136719 C 60.792969 191.4375 62.710938 193.480469 65.007812 193.480469 C 67.308594 193.480469 69.351562 191.5625 69.351562 189.265625 C 69.480469 186.835938 67.4375 184.792969 65.136719 184.917969 C 65.136719 184.792969 65.136719 184.792969 65.136719 184.917969 Z M 65.136719 246.386719 C 62.839844 246.386719 60.792969 248.304688 60.792969 250.605469 C 60.792969 252.90625 62.710938 254.949219 65.007812 254.949219 C 67.308594 254.949219 69.351562 253.035156 69.351562 250.734375 C 69.480469 248.304688 67.4375 246.261719 65.136719 246.386719 C 65.136719 246.261719 65.136719 246.261719 65.136719 246.386719 Z M 65.136719 307.859375 C 62.839844 307.859375 60.792969 309.773438 60.792969 312.074219 C 60.792969 314.375 62.710938 316.417969 65.007812 316.417969 C 67.308594 316.417969 69.351562 314.503906 69.351562 312.203125 C 69.480469 309.773438 67.4375 307.730469 65.136719 307.859375 C 65.136719 307.730469 65.136719 307.730469 65.136719 307.859375 Z M 65.136719 369.964844 C 63.09375 369.964844 61.433594 371.5 61.433594 373.542969 C 61.433594 375.589844 62.964844 377.25 65.007812 377.25 C 67.054688 377.25 68.714844 375.714844 68.714844 373.671875 C 68.839844 371.5 67.179688 369.835938 65.136719 369.964844 C 65.136719 369.835938 65.136719 369.835938 65.136719 369.964844 Z M 248.808594 61.980469 C 246.511719 61.980469 244.464844 63.898438 244.464844 66.199219 C 244.464844 68.496094 246.382812 70.542969 248.679688 70.542969 C 250.980469 70.542969 253.023438 68.625 253.023438 66.324219 C 253.152344 63.898438 251.109375 61.851562 248.808594 61.980469 C 248.808594 61.851562 248.808594 61.851562 248.808594 61.980469 Z M 126.320312 1.148438 C 124.273438 1.148438 122.613281 2.683594 122.613281 4.726562 C 122.613281 6.773438 124.148438 8.433594 126.191406 8.433594 C 128.234375 8.433594 129.894531 6.902344 129.894531 4.855469 C 130.023438 2.683594 128.363281 1.023438 126.320312 1.148438 C 126.320312 1.023438 126.320312 1.023438 126.320312 1.148438 Z M 3.957031 185.429688 C 1.914062 185.429688 0.25 186.964844 0.25 189.007812 C 0.25 191.054688 1.785156 192.714844 3.828125 192.714844 C 5.871094 192.714844 7.53125 191.179688 7.53125 189.136719 C 7.53125 187.089844 6 185.429688 3.957031 185.429688 Z M 3.957031 246.898438 C 1.914062 246.898438 0.25 248.433594 0.25 250.476562 C 0.25 252.523438 1.785156 254.183594 3.828125 254.183594 C 5.871094 254.183594 7.53125 252.648438 7.53125 250.605469 C 7.53125 248.5625 6 246.898438 3.957031 246.898438 Z M 3.957031 308.367188 C 1.914062 308.367188 0.25 309.902344 0.25 311.945312 C 0.25 313.992188 1.785156 315.652344 3.828125 315.652344 C 5.871094 315.652344 7.53125 314.121094 7.53125 312.074219 C 7.53125 310.03125 6 308.367188 3.957031 308.367188 Z M 3.957031 369.835938 C 1.914062 369.835938 0.25 371.371094 0.25 373.417969 C 0.25 375.460938 1.785156 377.121094 3.828125 377.121094 C 5.871094 377.121094 7.53125 375.589844 7.53125 373.542969 C 7.53125 371.5 6 369.835938 3.957031 369.835938 Z M 3.957031 62.621094 C 1.914062 62.621094 0.25 64.28125 0.25 66.199219 C 0.25 68.113281 1.914062 69.777344 3.957031 69.777344 C 6 69.777344 7.660156 68.113281 7.660156 66.199219 C 7.40625 64.152344 6 62.621094 3.957031 62.621094 Z M 3.957031 124.089844 C 1.914062 124.089844 0.25 125.75 0.25 127.667969 C 0.25 129.582031 1.914062 131.246094 3.957031 131.246094 C 6 131.246094 7.660156 129.582031 7.660156 127.667969 C 7.40625 125.621094 6 124.089844 3.957031 124.089844 Z M 3.957031 1.023438 C 1.914062 1.023438 0.25 2.554688 0.25 4.601562 C 0.25 6.644531 1.785156 8.308594 3.828125 8.308594 C 5.871094 8.308594 7.53125 6.773438 7.53125 4.726562 C 7.53125 2.683594 6 1.023438 3.957031 1.023438 Z M 248.679688 183.640625 C 246 183.640625 243.699219 185.8125 243.699219 188.625 C 243.699219 191.4375 245.871094 193.609375 248.679688 193.609375 C 251.492188 193.609375 253.664062 191.4375 253.664062 188.625 C 253.664062 185.8125 251.363281 183.640625 248.679688 183.640625 Z M 248.679688 245.109375 C 246 245.109375 243.699219 247.410156 243.699219 250.09375 C 243.699219 252.777344 246 255.078125 248.679688 255.078125 C 251.363281 255.078125 253.664062 252.777344 253.664062 250.09375 C 253.664062 247.410156 251.363281 245.109375 248.679688 245.109375 Z M 248.679688 307.21875 C 246.253906 307.21875 244.339844 309.261719 244.339844 311.5625 C 244.339844 313.992188 246.382812 315.910156 248.679688 315.910156 C 250.980469 315.910156 253.023438 313.863281 253.023438 311.5625 C 253.023438 309.261719 251.109375 307.21875 248.679688 307.21875 Z M 248.679688 369.453125 C 246.636719 369.453125 244.976562 371.117188 244.976562 373.160156 C 244.976562 375.207031 246.636719 376.867188 248.679688 376.867188 C 250.726562 376.867188 252.386719 375.207031 252.386719 373.160156 C 252.386719 370.988281 250.726562 369.453125 248.679688 369.453125 Z M 309.863281 61.46875 C 307.5625 61.46875 305.519531 63.386719 305.519531 65.6875 C 305.519531 67.988281 307.4375 69.902344 309.863281 69.902344 C 312.289062 69.902344 314.207031 67.988281 314.207031 65.6875 C 314.207031 63.257812 312.160156 61.46875 309.863281 61.46875 Z M 248.679688 122.171875 C 246 122.171875 243.828125 124.472656 243.828125 127.15625 C 243.828125 129.839844 246.125 132.011719 248.808594 132.011719 C 251.492188 132.011719 253.664062 129.710938 253.664062 127.027344 C 253.664062 124.34375 251.363281 122.171875 248.679688 122.171875 Z M 248.679688 0.382812 C 246.636719 0.382812 244.976562 2.042969 244.976562 3.960938 C 244.976562 6.007812 246.636719 7.667969 248.679688 7.667969 C 250.726562 7.667969 252.386719 6.007812 252.386719 3.960938 C 252.386719 2.042969 250.726562 0.382812 248.679688 0.382812 Z M 371.042969 185.046875 C 369 185.046875 367.46875 186.707031 367.46875 188.753906 C 367.46875 190.796875 369.128906 192.332031 371.171875 192.332031 C 373.214844 192.332031 374.75 190.667969 374.75 188.625 C 374.75 186.582031 373.085938 185.046875 371.042969 185.046875 Z M 371.042969 246.515625 C 369 246.515625 367.46875 248.175781 367.46875 250.222656 C 367.46875 252.265625 369.128906 253.800781 371.171875 253.800781 C 373.214844 253.800781 374.75 252.140625 374.75 250.09375 C 374.75 248.050781 373.085938 246.515625 371.042969 246.515625 Z M 371.042969 307.984375 C 369 307.984375 367.46875 309.648438 367.46875 311.691406 C 367.46875 313.734375 369.128906 315.269531 371.171875 315.269531 C 373.214844 315.269531 374.75 313.609375 374.75 311.5625 C 374.75 309.519531 373.085938 307.984375 371.042969 307.984375 Z M 371.042969 369.453125 C 369 369.453125 367.46875 371.117188 367.46875 373.160156 C 367.46875 375.207031 369.128906 376.738281 371.171875 376.738281 C 373.214844 376.738281 374.75 375.078125 374.75 373.03125 C 374.75 370.988281 373.085938 369.453125 371.042969 369.453125 Z M 371.042969 62.109375 C 369.128906 62.109375 367.46875 63.769531 367.46875 65.6875 C 367.46875 67.601562 369.128906 69.265625 371.042969 69.265625 C 372.960938 69.265625 374.621094 67.601562 374.621094 65.6875 C 374.75 63.640625 372.960938 62.109375 371.042969 62.109375 Z M 371.042969 0.511719 C 369 0.511719 367.46875 2.171875 367.46875 4.21875 C 367.46875 6.261719 369.128906 7.796875 371.171875 7.796875 C 373.214844 7.796875 374.75 6.132812 374.75 4.089844 C 374.75 2.042969 373.085938 0.511719 371.042969 0.511719 Z M 65.136719 123.449219 C 62.710938 123.449219 60.921875 125.367188 60.921875 127.667969 C 60.921875 129.96875 62.839844 131.882812 65.136719 131.882812 C 67.4375 131.882812 69.351562 129.96875 69.351562 127.667969 C 69.480469 125.238281 67.4375 123.449219 65.136719 123.449219 Z M 65.136719 1.148438 C 63.09375 1.148438 61.433594 2.683594 61.433594 4.726562 C 61.433594 6.773438 62.964844 8.433594 65.007812 8.433594 C 67.054688 8.433594 68.714844 6.902344 68.714844 4.855469 C 68.839844 2.683594 67.179688 1.023438 65.136719 1.148438 C 65.136719 1.023438 65.136719 1.023438 65.136719 1.148438 Z M 187.628906 61.980469 C 185.328125 61.980469 183.285156 63.898438 183.285156 66.199219 C 183.285156 68.496094 185.199219 70.542969 187.5 70.542969 C 189.800781 70.542969 191.84375 68.625 191.84375 66.324219 C 191.96875 63.898438 189.925781 61.851562 187.628906 61.980469 C 187.628906 61.851562 187.628906 61.851562 187.628906 61.980469 Z M 126.320312 61.980469 C 124.019531 61.980469 122.105469 63.769531 122.105469 66.199219 C 122.105469 68.496094 123.890625 70.414062 126.320312 70.414062 C 128.746094 70.414062 130.535156 68.625 130.535156 66.199219 C 130.660156 63.898438 128.746094 61.980469 126.320312 61.980469 Z M 65.136719 61.980469 C 62.710938 61.980469 60.921875 63.898438 60.921875 66.199219 C 60.921875 68.496094 62.839844 70.414062 65.136719 70.414062 C 67.4375 70.414062 69.351562 68.496094 69.351562 66.199219 C 69.480469 63.769531 67.5625 61.980469 65.136719 61.980469 Z M 371.042969 123.578125 C 369.128906 123.578125 367.46875 125.238281 367.46875 127.15625 C 367.46875 129.074219 369.128906 130.734375 371.042969 130.734375 C 372.960938 130.734375 374.621094 129.074219 374.621094 127.15625 C 374.75 125.109375 372.960938 123.578125 371.042969 123.578125 Z M 371.042969 123.578125"/></svg>