<svg width="25" height="25" viewBox="0 0 25 25" fill="none" xmlns="http://www.w3.org/2000/svg">
<path d="M22.6562 0L2.34375 0C1.05469 0 0 1.05469 0 2.34375L0 22.6562C0 23.9453 1.05469 25 2.34375 25H22.6562C23.9453 25 25 23.9453 25 22.6562V2.34375C25 1.05469 23.9453 0 22.6562 0ZM9.375 18.75C5.91875 18.75 3.125 15.9578 3.125 12.5C3.125 9.04219 5.91875 6.25 9.375 6.25C11.0641 6.25 12.475 6.86562 13.5641 7.88594L11.8641 9.51719C11.4 9.07344 10.5891 8.55469 9.37344 8.55469C7.23906 8.55469 5.49687 10.3219 5.49687 12.5C5.49687 14.6781 7.24063 16.4453 9.37344 16.4453C11.8484 16.4453 12.7766 14.6688 12.9187 13.75H9.37344V11.6062H15.2766C15.3297 11.9187 15.375 12.2312 15.375 12.6422C15.375 16.2156 12.9828 18.75 9.37344 18.75H9.375ZM21.875 12.5H20.3125V14.0625H18.75V12.5H17.1875V10.9375H18.75V9.375H20.3125V10.9375H21.875V12.5Z" fill="black"/>
</svg>
