<svg width="33" height="33" viewBox="0 0 33 33" fill="none" xmlns="http://www.w3.org/2000/svg">
<g filter="url(#filter0_d_518_7)">
<rect x="4" width="25" height="25" rx="3" fill="black"/>
<path d="M26.6562 0L6.34375 0C5.05469 0 4 1.05469 4 2.34375L4 22.6562C4 23.9453 5.05469 25 6.34375 25H26.6562C27.9453 25 29 23.9453 29 22.6562V2.34375C29 1.05469 27.9453 0 26.6562 0ZM13.375 18.75C9.91875 18.75 7.125 15.9578 7.125 12.5C7.125 9.04219 9.91875 6.25 13.375 6.25C15.0641 6.25 16.475 6.86562 17.5641 7.88594L15.8641 9.51719C15.4 9.07344 14.5891 8.55469 13.3734 8.55469C11.2391 8.55469 9.49687 10.3219 9.49687 12.5C9.49687 14.6781 11.2406 16.4453 13.3734 16.4453C15.8484 16.4453 16.7766 14.6688 16.9187 13.75H13.3734V11.6062H19.2766C19.3297 11.9187 19.375 12.2312 19.375 12.6422C19.375 16.2156 16.9828 18.75 13.3734 18.75H13.375ZM25.875 12.5H24.3125V14.0625H22.75V12.5H21.1875V10.9375H22.75V9.375H24.3125V10.9375H25.875V12.5Z" fill="white"/>
</g>
<defs>
<filter id="filter0_d_518_7" x="0" y="0" width="33" height="33" filterUnits="userSpaceOnUse" color-interpolation-filters="sRGB">
<feFlood flood-opacity="0" result="BackgroundImageFix"/>
<feColorMatrix in="SourceAlpha" type="matrix" values="0 0 0 0 0 0 0 0 0 0 0 0 0 0 0 0 0 0 127 0" result="hardAlpha"/>
<feOffset dy="4"/>
<feGaussianBlur stdDeviation="2"/>
<feComposite in2="hardAlpha" operator="out"/>
<feColorMatrix type="matrix" values="0 0 0 0 0 0 0 0 0 0 0 0 0 0 0 0 0 0 0.25 0"/>
<feBlend mode="normal" in2="BackgroundImageFix" result="effect1_dropShadow_518_7"/>
<feBlend mode="normal" in="SourceGraphic" in2="effect1_dropShadow_518_7" result="shape"/>
</filter>
</defs>
</svg>
