<svg width="61" height="78" viewBox="0 0 61 78" fill="none" xmlns="http://www.w3.org/2000/svg">
<path fill-rule="evenodd" clip-rule="evenodd" d="M52.0556 20.9067V31.25H60.1389V72.3333C60.1389 73.6152 59.5711 74.8446 58.5605 75.751C57.5499 76.6574 56.1792 77.1667 54.75 77.1667H6.25001C4.82078 77.1667 3.4501 76.6574 2.43949 75.751C1.42887 74.8446 0.861118 73.6152 0.861118 72.3333V31.25H8.94445V20.9067C8.82873 15.6671 11.0318 10.5997 15.0715 6.81336C19.1112 3.02705 24.6587 0.830129 30.5 0.703337C36.3413 0.830129 41.8888 3.02705 45.9285 6.81336C49.9682 10.5997 52.1713 15.6671 52.0556 20.9067ZM18.8816 10.2305C15.8524 13.1105 14.2172 16.9487 14.3333 20.9067V31.25H46.6667V20.9067C46.7828 16.9487 45.1477 13.1105 42.1184 10.2305C39.0892 7.35054 34.9121 5.66302 30.5 5.53667C26.0879 5.66302 21.9108 7.35054 18.8816 10.2305ZM6.25001 36.0833V72.3333H54.75V36.0833H6.25001ZM26.751 46.0239C27.8866 45.2143 29.2918 44.769 30.7425 44.7592C32.246 44.7614 33.7021 45.2314 34.8623 46.0891C36.0225 46.9469 36.8149 48.1391 37.1042 49.4625C37.3936 50.7858 37.162 52.1581 36.449 53.3454C35.7359 54.5326 34.5857 55.4611 33.1944 55.9725V62.6667H27.8055V55.755C26.5173 55.1567 25.4896 54.1887 24.8862 53.0054C24.2829 51.8221 24.1387 50.4917 24.4767 49.2263C24.8147 47.961 25.6153 46.8336 26.751 46.0239Z" fill="black"/>
</svg>
